%FSLAX35Y35*%
%MOIN*%
G04 EasyPC Gerber Version 18.0.9 Build 3640 *
%ADD19C,0.00500*%
%ADD18C,0.10000*%
X0Y0D02*
D02*
D18*
X15801Y15801D03*
Y43301D03*
Y75801D03*
Y105801D03*
X36116Y20801D03*
X47770Y42022D03*
Y89266D03*
X55801Y20801D03*
X67455Y42022D03*
Y89266D03*
X75486Y20801D03*
X100801Y15801D03*
Y43301D03*
Y75801D03*
Y105801D03*
D02*
D19*
X25801Y21739D02*
X27364Y25489D01*
X28926Y21739*
X26426Y23301D02*
X28301D01*
X27989Y51114D02*
X28614Y50801D01*
X28926Y50176*
X28614Y49551*
X27989Y49239*
X25801*
Y52989*
X27989*
X28614Y52676*
X28926Y52051*
X28614Y51426*
X27989Y51114*
X25801*
X27989Y83614D02*
X28614Y83301D01*
X28926Y82676*
X28614Y82051*
X27989Y81739*
X25801*
Y85489*
X27989*
X28614Y85176*
X28926Y84551*
X28614Y83926*
X27989Y83614*
X25801*
Y111739D02*
X27364Y115489D01*
X28926Y111739*
X26426Y113301D02*
X28301D01*
X49241Y27364D02*
X48929Y27051D01*
X48304Y26739*
X47366*
X46741Y27051*
X46429Y27364*
X46116Y27989*
Y29239*
X46429Y29864*
X46741Y30176*
X47366Y30489*
X48304*
X48929Y30176*
X49241Y29864*
X59957Y49834D02*
X60582Y49522D01*
X60895Y48897*
X60582Y48272*
X59957Y47959*
X57770*
Y51709*
X59957*
X60582Y51397*
X60895Y50772*
X60582Y50147*
X59957Y49834*
X57770*
X59957Y97078D02*
X60582Y96766D01*
X60895Y96141*
X60582Y95516*
X59957Y95203*
X57770*
Y98953*
X59957*
X60582Y98641*
X60895Y98016*
X60582Y97391*
X59957Y97078*
X57770*
X68926Y27364D02*
X68614Y27051D01*
X67989Y26739*
X67051*
X66426Y27051*
X66114Y27364*
X65801Y27989*
Y29239*
X66114Y29864*
X66426Y30176*
X67051Y30489*
X67989*
X68614Y30176*
X68926Y29864*
X79642Y49834D02*
X80267Y49522D01*
X80580Y48897*
X80267Y48272*
X79642Y47959*
X77455*
Y51709*
X79642*
X80267Y51397*
X80580Y50772*
X80267Y50147*
X79642Y49834*
X77455*
X79642Y97078D02*
X80267Y96766D01*
X80580Y96141*
X80267Y95516*
X79642Y95203*
X77455*
Y98953*
X79642*
X80267Y98641*
X80580Y98016*
X80267Y97391*
X79642Y97078*
X77455*
X88611Y27364D02*
X88299Y27051D01*
X87674Y26739*
X86736*
X86111Y27051*
X85799Y27364*
X85486Y27989*
Y29239*
X85799Y29864*
X86111Y30176*
X86736Y30489*
X87674*
X88299Y30176*
X88611Y29864*
X110801Y21739D02*
X112364Y25489D01*
X113926Y21739*
X111426Y23301D02*
X113301D01*
X112989Y51114D02*
X113614Y50801D01*
X113926Y50176*
X113614Y49551*
X112989Y49239*
X110801*
Y52989*
X112989*
X113614Y52676*
X113926Y52051*
X113614Y51426*
X112989Y51114*
X110801*
X112989Y83614D02*
X113614Y83301D01*
X113926Y82676*
X113614Y82051*
X112989Y81739*
X110801*
Y85489*
X112989*
X113614Y85176*
X113926Y84551*
X113614Y83926*
X112989Y83614*
X110801*
Y111739D02*
X112364Y115489D01*
X113926Y111739*
X111426Y113301D02*
X113301D01*
X0Y0D02*
M02*
