G04 EasyPC Gerber Version 20.0.2 Build 4112 *
%FSLAX35Y35*%
%MOIN*%
%ADD15C,0.00500*%
%ADD14C,0.10000*%
X0Y0D02*
D02*
D14*
X14000Y56742D03*
Y66742D03*
Y76742D03*
Y190600D03*
Y200600D03*
Y210600D03*
Y324459D03*
Y334459D03*
Y344459D03*
X31126Y21522D03*
Y106522D03*
Y155380D03*
Y240380D03*
Y289239D03*
Y374239D03*
X37031Y44153D03*
Y84153D03*
Y178011D03*
Y218011D03*
Y311869D03*
Y351869D03*
X63094Y42743D03*
Y89987D03*
Y176601D03*
Y223845D03*
Y310459D03*
Y357703D03*
X82780Y42743D03*
Y89987D03*
Y176601D03*
Y223845D03*
Y310459D03*
Y357703D03*
X111970Y44365D03*
Y73893D03*
Y178224D03*
Y207751D03*
Y312082D03*
Y341609D03*
X116126Y21522D03*
Y106522D03*
Y155380D03*
Y240380D03*
Y289239D03*
Y374239D03*
X171480Y56742D03*
Y66742D03*
Y76742D03*
Y190600D03*
Y200600D03*
Y210600D03*
Y324459D03*
Y334459D03*
Y344459D03*
X188606Y21522D03*
Y106522D03*
Y155380D03*
Y240380D03*
Y289239D03*
Y374239D03*
X194511Y44153D03*
Y84153D03*
Y178011D03*
Y218011D03*
Y311869D03*
Y351869D03*
X220575Y42743D03*
Y89987D03*
Y176601D03*
Y223845D03*
Y310459D03*
Y357703D03*
X240260Y42743D03*
Y89987D03*
Y176601D03*
Y223845D03*
Y310459D03*
Y357703D03*
X269451Y44365D03*
Y73893D03*
Y178224D03*
Y207751D03*
Y312082D03*
Y341609D03*
X273606Y21522D03*
Y106522D03*
Y155380D03*
Y240380D03*
Y289239D03*
Y374239D03*
D02*
D15*
X24000Y62680D02*
X25563Y66430D01*
X27125Y62680*
X24625Y64242D02*
X26500D01*
X24000Y72680D02*
X25563Y76430D01*
X27125Y72680*
X24625Y74242D02*
X26500D01*
X24000Y82680D02*
X25563Y86430D01*
X27125Y82680*
X24625Y84242D02*
X26500D01*
X24000Y196538D02*
X25563Y200288D01*
X27125Y196538*
X24625Y198100D02*
X26500D01*
X24000Y206538D02*
X25563Y210288D01*
X27125Y206538*
X24625Y208100D02*
X26500D01*
X24000Y216538D02*
X25563Y220288D01*
X27125Y216538*
X24625Y218100D02*
X26500D01*
X24000Y330396D02*
X25563Y334146D01*
X27125Y330396*
X24625Y331959D02*
X26500D01*
X24000Y340396D02*
X25563Y344146D01*
X27125Y340396*
X24625Y341959D02*
X26500D01*
X24000Y350396D02*
X25563Y354146D01*
X27125Y350396*
X24625Y351959D02*
X26500D01*
X43313Y29335D02*
X43939Y29022D01*
X44251Y28397*
X43939Y27772*
X43313Y27459*
X41126*
Y31209*
X43313*
X43939Y30897*
X44251Y30272*
X43939Y29647*
X43313Y29335*
X41126*
X43313Y114335D02*
X43939Y114022D01*
X44251Y113397*
X43939Y112772*
X43313Y112459*
X41126*
Y116209*
X43313*
X43939Y115897*
X44251Y115272*
X43939Y114647*
X43313Y114335*
X41126*
X43313Y163193D02*
X43939Y162880D01*
X44251Y162256*
X43939Y161630*
X43313Y161318*
X41126*
Y165068*
X43313*
X43939Y164756*
X44251Y164130*
X43939Y163506*
X43313Y163193*
X41126*
X43313Y248193D02*
X43939Y247880D01*
X44251Y247256*
X43939Y246630*
X43313Y246318*
X41126*
Y250068*
X43313*
X43939Y249756*
X44251Y249130*
X43939Y248506*
X43313Y248193*
X41126*
X43313Y297051D02*
X43939Y296739D01*
X44251Y296114*
X43939Y295489*
X43313Y295176*
X41126*
Y298926*
X43313*
X43939Y298614*
X44251Y297989*
X43939Y297364*
X43313Y297051*
X41126*
X43313Y382051D02*
X43939Y381739D01*
X44251Y381114*
X43939Y380489*
X43313Y380176*
X41126*
Y383926*
X43313*
X43939Y383614*
X44251Y382989*
X43939Y382364*
X43313Y382051*
X41126*
X47031Y50090D02*
X48593Y53840D01*
X50156Y50090*
X47656Y51653D02*
X49531D01*
X47031Y90090D02*
X48593Y93840D01*
X50156Y90090*
X47656Y91653D02*
X49531D01*
X47031Y183948D02*
X48593Y187698D01*
X50156Y183948*
X47656Y185511D02*
X49531D01*
X47031Y223948D02*
X48593Y227698D01*
X50156Y223948*
X47656Y225511D02*
X49531D01*
X47031Y317807D02*
X48593Y321557D01*
X50156Y317807*
X47656Y319369D02*
X49531D01*
X47031Y357807D02*
X48593Y361557D01*
X50156Y357807*
X47656Y359369D02*
X49531D01*
X73094Y48680D02*
Y52430D01*
X76220Y48680*
Y52430*
X73094Y95924D02*
Y99674D01*
X76220Y95924*
Y99674*
X73094Y182538D02*
Y186288D01*
X76220Y182538*
Y186288*
X73094Y229782D02*
Y233532D01*
X76220Y229782*
Y233532*
X73094Y316396D02*
Y320146D01*
X76220Y316396*
Y320146*
X73094Y363641D02*
Y367391D01*
X76220Y363641*
Y367391*
X92780Y48680D02*
Y52430D01*
X95905Y48680*
Y52430*
X92780Y95924D02*
Y99674D01*
X95905Y95924*
Y99674*
X92780Y182538D02*
Y186288D01*
X95905Y182538*
Y186288*
X92780Y229782D02*
Y233532D01*
X95905Y229782*
Y233532*
X92780Y316396D02*
Y320146D01*
X95905Y316396*
Y320146*
X92780Y363641D02*
Y367391D01*
X95905Y363641*
Y367391*
X121970Y50303D02*
Y54053D01*
X125096*
X124470Y52178D02*
X121970D01*
Y79830D02*
Y83580D01*
X125096*
X124470Y81706D02*
X121970D01*
Y184161D02*
Y187911D01*
X125096*
X124470Y186036D02*
X121970D01*
Y213689D02*
Y217439D01*
X125096*
X124470Y215564D02*
X121970D01*
Y318019D02*
Y321769D01*
X125096*
X124470Y319894D02*
X121970D01*
Y347547D02*
Y351297D01*
X125096*
X124470Y349422D02*
X121970D01*
X128313Y29335D02*
X128939Y29022D01*
X129251Y28397*
X128939Y27772*
X128313Y27459*
X126126*
Y31209*
X128313*
X128939Y30897*
X129251Y30272*
X128939Y29647*
X128313Y29335*
X126126*
X128313Y114335D02*
X128939Y114022D01*
X129251Y113397*
X128939Y112772*
X128313Y112459*
X126126*
Y116209*
X128313*
X128939Y115897*
X129251Y115272*
X128939Y114647*
X128313Y114335*
X126126*
X128313Y163193D02*
X128939Y162880D01*
X129251Y162256*
X128939Y161630*
X128313Y161318*
X126126*
Y165068*
X128313*
X128939Y164756*
X129251Y164130*
X128939Y163506*
X128313Y163193*
X126126*
X128313Y248193D02*
X128939Y247880D01*
X129251Y247256*
X128939Y246630*
X128313Y246318*
X126126*
Y250068*
X128313*
X128939Y249756*
X129251Y249130*
X128939Y248506*
X128313Y248193*
X126126*
X128313Y297051D02*
X128939Y296739D01*
X129251Y296114*
X128939Y295489*
X128313Y295176*
X126126*
Y298926*
X128313*
X128939Y298614*
X129251Y297989*
X128939Y297364*
X128313Y297051*
X126126*
X128313Y382051D02*
X128939Y381739D01*
X129251Y381114*
X128939Y380489*
X128313Y380176*
X126126*
Y383926*
X128313*
X128939Y383614*
X129251Y382989*
X128939Y382364*
X128313Y382051*
X126126*
X181480Y62680D02*
X183043Y66430D01*
X184606Y62680*
X182106Y64242D02*
X183980D01*
X181480Y72680D02*
X183043Y76430D01*
X184606Y72680*
X182106Y74242D02*
X183980D01*
X181480Y82680D02*
X183043Y86430D01*
X184606Y82680*
X182106Y84242D02*
X183980D01*
X181480Y196538D02*
X183043Y200288D01*
X184606Y196538*
X182106Y198100D02*
X183980D01*
X181480Y206538D02*
X183043Y210288D01*
X184606Y206538*
X182106Y208100D02*
X183980D01*
X181480Y216538D02*
X183043Y220288D01*
X184606Y216538*
X182106Y218100D02*
X183980D01*
X181480Y330396D02*
X183043Y334146D01*
X184606Y330396*
X182106Y331959D02*
X183980D01*
X181480Y340396D02*
X183043Y344146D01*
X184606Y340396*
X182106Y341959D02*
X183980D01*
X181480Y350396D02*
X183043Y354146D01*
X184606Y350396*
X182106Y351959D02*
X183980D01*
X200794Y29335D02*
X201419Y29022D01*
X201731Y28397*
X201419Y27772*
X200794Y27459*
X198606*
Y31209*
X200794*
X201419Y30897*
X201731Y30272*
X201419Y29647*
X200794Y29335*
X198606*
X200794Y114335D02*
X201419Y114022D01*
X201731Y113397*
X201419Y112772*
X200794Y112459*
X198606*
Y116209*
X200794*
X201419Y115897*
X201731Y115272*
X201419Y114647*
X200794Y114335*
X198606*
X200794Y163193D02*
X201419Y162880D01*
X201731Y162256*
X201419Y161630*
X200794Y161318*
X198606*
Y165068*
X200794*
X201419Y164756*
X201731Y164130*
X201419Y163506*
X200794Y163193*
X198606*
X200794Y248193D02*
X201419Y247880D01*
X201731Y247256*
X201419Y246630*
X200794Y246318*
X198606*
Y250068*
X200794*
X201419Y249756*
X201731Y249130*
X201419Y248506*
X200794Y248193*
X198606*
X200794Y297051D02*
X201419Y296739D01*
X201731Y296114*
X201419Y295489*
X200794Y295176*
X198606*
Y298926*
X200794*
X201419Y298614*
X201731Y297989*
X201419Y297364*
X200794Y297051*
X198606*
X200794Y382051D02*
X201419Y381739D01*
X201731Y381114*
X201419Y380489*
X200794Y380176*
X198606*
Y383926*
X200794*
X201419Y383614*
X201731Y382989*
X201419Y382364*
X200794Y382051*
X198606*
X204511Y50090D02*
X206074Y53840D01*
X207636Y50090*
X205136Y51653D02*
X207011D01*
X204511Y90090D02*
X206074Y93840D01*
X207636Y90090*
X205136Y91653D02*
X207011D01*
X204511Y183948D02*
X206074Y187698D01*
X207636Y183948*
X205136Y185511D02*
X207011D01*
X204511Y223948D02*
X206074Y227698D01*
X207636Y223948*
X205136Y225511D02*
X207011D01*
X204511Y317807D02*
X206074Y321557D01*
X207636Y317807*
X205136Y319369D02*
X207011D01*
X204511Y357807D02*
X206074Y361557D01*
X207636Y357807*
X205136Y359369D02*
X207011D01*
X230575Y48680D02*
Y52430D01*
X233700Y48680*
Y52430*
X230575Y95924D02*
Y99674D01*
X233700Y95924*
Y99674*
X230575Y182538D02*
Y186288D01*
X233700Y182538*
Y186288*
X230575Y229782D02*
Y233532D01*
X233700Y229782*
Y233532*
X230575Y316396D02*
Y320146D01*
X233700Y316396*
Y320146*
X230575Y363641D02*
Y367391D01*
X233700Y363641*
Y367391*
X250260Y48680D02*
Y52430D01*
X253385Y48680*
Y52430*
X250260Y95924D02*
Y99674D01*
X253385Y95924*
Y99674*
X250260Y182538D02*
Y186288D01*
X253385Y182538*
Y186288*
X250260Y229782D02*
Y233532D01*
X253385Y229782*
Y233532*
X250260Y316396D02*
Y320146D01*
X253385Y316396*
Y320146*
X250260Y363641D02*
Y367391D01*
X253385Y363641*
Y367391*
X279451Y50303D02*
Y54053D01*
X282576*
X281951Y52178D02*
X279451D01*
Y79830D02*
Y83580D01*
X282576*
X281951Y81706D02*
X279451D01*
Y184161D02*
Y187911D01*
X282576*
X281951Y186036D02*
X279451D01*
Y213689D02*
Y217439D01*
X282576*
X281951Y215564D02*
X279451D01*
Y318019D02*
Y321769D01*
X282576*
X281951Y319894D02*
X279451D01*
Y347547D02*
Y351297D01*
X282576*
X281951Y349422D02*
X279451D01*
X285794Y29335D02*
X286419Y29022D01*
X286731Y28397*
X286419Y27772*
X285794Y27459*
X283606*
Y31209*
X285794*
X286419Y30897*
X286731Y30272*
X286419Y29647*
X285794Y29335*
X283606*
X285794Y114335D02*
X286419Y114022D01*
X286731Y113397*
X286419Y112772*
X285794Y112459*
X283606*
Y116209*
X285794*
X286419Y115897*
X286731Y115272*
X286419Y114647*
X285794Y114335*
X283606*
X285794Y163193D02*
X286419Y162880D01*
X286731Y162256*
X286419Y161630*
X285794Y161318*
X283606*
Y165068*
X285794*
X286419Y164756*
X286731Y164130*
X286419Y163506*
X285794Y163193*
X283606*
X285794Y248193D02*
X286419Y247880D01*
X286731Y247256*
X286419Y246630*
X285794Y246318*
X283606*
Y250068*
X285794*
X286419Y249756*
X286731Y249130*
X286419Y248506*
X285794Y248193*
X283606*
X285794Y297051D02*
X286419Y296739D01*
X286731Y296114*
X286419Y295489*
X285794Y295176*
X283606*
Y298926*
X285794*
X286419Y298614*
X286731Y297989*
X286419Y297364*
X285794Y297051*
X283606*
X285794Y382051D02*
X286419Y381739D01*
X286731Y381114*
X286419Y380489*
X285794Y380176*
X283606*
Y383926*
X285794*
X286419Y383614*
X286731Y382989*
X286419Y382364*
X285794Y382051*
X283606*
X0Y0D02*
M02*
