G04 EasyPC Gerber Version 20.0.2 Build 4112 *
%FSLAX35Y35*%
%MOIN*%
%ADD71R,0.08268X0.08268*%
%ADD115C,0.01500*%
%ADD136C,0.01772*%
%ADD114C,0.02756*%
%ADD19C,0.07874*%
%ADD20C,0.08268*%
%ADD25C,0.09449*%
%ADD17C,0.13780*%
X0Y0D02*
D02*
D17*
X31126Y21522D03*
Y106522D03*
Y155380D03*
Y240380D03*
Y289239D03*
Y374239D03*
X116126Y21522D03*
Y106522D03*
Y155380D03*
Y240380D03*
Y289239D03*
Y374239D03*
X188606Y21522D03*
Y106522D03*
Y155380D03*
Y240380D03*
Y289239D03*
Y374239D03*
X273606Y21522D03*
Y106522D03*
Y155380D03*
Y240380D03*
Y289239D03*
Y374239D03*
D02*
D19*
X37031Y44153D03*
Y84153D03*
Y178011D03*
Y218011D03*
Y311869D03*
Y351869D03*
X111970Y44365D03*
Y73893D03*
Y178224D03*
Y207751D03*
Y312082D03*
Y341609D03*
X194511Y44153D03*
Y84153D03*
Y178011D03*
Y218011D03*
Y311869D03*
Y351869D03*
X269451Y44365D03*
Y73893D03*
Y178224D03*
Y207751D03*
Y312082D03*
Y341609D03*
D02*
D71*
X14000Y76742D03*
Y210600D03*
Y344459D03*
X171480Y76742D03*
Y210600D03*
Y344459D03*
D02*
D20*
X14000Y56742D03*
Y66742D03*
Y190600D03*
Y200600D03*
Y324459D03*
Y334459D03*
X171480Y56742D03*
Y66742D03*
Y190600D03*
Y200600D03*
Y324459D03*
Y334459D03*
D02*
D25*
X63094Y42743D03*
Y89987D03*
Y176601D03*
Y223845D03*
Y310459D03*
Y357703D03*
X82780Y42743D03*
Y89987D03*
Y176601D03*
Y223845D03*
Y310459D03*
Y357703D03*
X220575Y42743D03*
Y89987D03*
Y176601D03*
Y223845D03*
Y310459D03*
Y357703D03*
X240260Y42743D03*
Y89987D03*
Y176601D03*
Y223845D03*
Y310459D03*
Y357703D03*
D02*
D114*
X5763Y66742D02*
Y69238D01*
Y66742D02*
Y63872D01*
Y69238D02*
Y84090D01*
X7642Y85969*
X33276*
X35093Y84153*
X37031*
X5763Y200600D02*
Y203096D01*
Y200600D02*
Y197730D01*
Y203096D02*
Y217948D01*
X7642Y219827*
X33276*
X35093Y218011*
X37031*
X5763Y334459D02*
Y336955D01*
Y334459D02*
Y331588D01*
Y336955D02*
Y351806D01*
X7642Y353685*
X33276*
X35093Y351869*
X37031*
X8883Y66742D02*
X5763D01*
X8883Y200600D02*
X5763D01*
X8883Y334459D02*
X5763D01*
X14000Y66742D02*
X8883D01*
X14000Y200600D02*
X8883D01*
X14000Y334459D02*
X8883D01*
X34842Y59504D02*
X26231D01*
X23469Y56742*
X14000*
X34842Y193362D02*
X26231D01*
X23469Y190600*
X14000*
X34842Y327220D02*
X26231D01*
X23469Y324459*
X14000*
X37031Y56883D02*
Y56950D01*
X39585Y59504*
X37031Y56883D02*
Y57315D01*
X34842Y59504*
X37031Y56883D02*
Y44153D01*
Y84153D02*
X57261D01*
X63094Y89987*
X37031Y190741D02*
Y190808D01*
X39585Y193362*
X37031Y190741D02*
Y191173D01*
X34842Y193362*
X37031Y190741D02*
Y178011D01*
Y218011D02*
X57261D01*
X63094Y223845*
X37031Y324599D02*
Y324666D01*
X39585Y327220*
X37031Y324599D02*
Y325031D01*
X34842Y327220*
X37031Y324599D02*
Y311869D01*
Y351869D02*
X57261D01*
X63094Y357703*
X37152Y59504D02*
Y58755D01*
X37031*
Y56883*
X37152Y59504D02*
X34842D01*
X37152Y193362D02*
Y192613D01*
X37031*
Y190741*
X37152Y193362D02*
X34842D01*
X37152Y327220D02*
Y326471D01*
X37031*
Y324599*
X37152Y327220D02*
X34842D01*
X39585Y59504D02*
X37152D01*
X39585Y193362D02*
X37152D01*
X39585Y327220D02*
X37152D01*
X60676Y34793D02*
X11763D01*
X5763Y40793*
Y63872*
X60676Y168651D02*
X11763D01*
X5763Y174651*
Y197730*
X60676Y302509D02*
X11763D01*
X5763Y308509*
Y331588*
X63094Y34793D02*
X60676D01*
X63094Y37164D02*
Y37117D01*
X65419Y34793*
X63094Y37164D02*
X63048D01*
X60676Y34793*
X63094Y37164D02*
Y34793D01*
Y42743D02*
Y37164D01*
Y168651D02*
X60676D01*
X63094Y171022D02*
Y170975D01*
X65419Y168651*
X63094Y171022D02*
X63048D01*
X60676Y168651*
X63094Y171022D02*
Y168651D01*
Y176601D02*
Y171022D01*
Y302509D02*
X60676D01*
X63094Y304880D02*
Y304833D01*
X65419Y302509*
X63094Y304880D02*
X63048D01*
X60676Y302509*
X63094Y304880D02*
Y302509D01*
Y310459D02*
Y304880D01*
X65419Y34793D02*
X63094D01*
X65419Y168651D02*
X63094D01*
X65419Y302509D02*
X63094D01*
X79397Y79735D02*
X67907D01*
X60531Y72358*
X26980*
X22611Y76726*
X14000*
Y76742*
X79397Y213593D02*
X67907D01*
X60531Y206217*
X26980*
X22611Y210585*
X14000*
Y210600*
X79397Y347451D02*
X67907D01*
X60531Y340075*
X26980*
X22611Y344443*
X14000*
Y344459*
X82780Y79735D02*
X79397D01*
X82780Y83341D02*
Y79735D01*
Y89987D02*
Y83341D01*
Y213593D02*
X79397D01*
X82780Y217199D02*
Y213593D01*
Y223845D02*
Y217199D01*
Y347451D02*
X79397D01*
X82780Y351057D02*
Y347451D01*
Y357703D02*
Y351057D01*
X86386Y79735D02*
X90380D01*
X96107Y85463*
X116463*
X121580Y80346*
Y67491*
X106978Y52889*
Y52764*
X96582Y42368*
X82780*
Y42743*
X86386Y79735D02*
X82780D01*
X86386Y213593D02*
X90380D01*
X96107Y219321*
X116463*
X121580Y214204*
Y201349*
X106978Y186747*
Y186622*
X96582Y176226*
X82780*
Y176601*
X86386Y213593D02*
X82780D01*
X86386Y347451D02*
X90380D01*
X96107Y353179*
X116463*
X121580Y348062*
Y335207*
X106978Y320606*
Y320481*
X96582Y310085*
X82780*
Y310459*
X86386Y347451D02*
X82780D01*
X111970Y44365D02*
X110801D01*
X101228Y34793*
X65419*
X111970Y73893D02*
Y73731D01*
X97743Y59504*
X39585*
X111970Y178224D02*
X110801D01*
X101228Y168651*
X65419*
X111970Y207751D02*
Y207589D01*
X97743Y193362*
X39585*
X111970Y312082D02*
X110801D01*
X101228Y302509*
X65419*
X111970Y341609D02*
Y341448D01*
X97743Y327220*
X39585*
X163243Y66742D02*
Y69238D01*
Y66742D02*
Y63872D01*
Y69238D02*
Y84090D01*
X165122Y85969*
X190757*
X192573Y84153*
X194511*
X163243Y200600D02*
Y203096D01*
Y200600D02*
Y197730D01*
Y203096D02*
Y217948D01*
X165122Y219827*
X190757*
X192573Y218011*
X194511*
X163243Y334459D02*
Y336955D01*
Y334459D02*
Y331588D01*
Y336955D02*
Y351806D01*
X165122Y353685*
X190757*
X192573Y351869*
X194511*
X166363Y66742D02*
X163243D01*
X166363Y200600D02*
X163243D01*
X166363Y334459D02*
X163243D01*
X171480Y66742D02*
X166363D01*
X171480Y200600D02*
X166363D01*
X171480Y334459D02*
X166363D01*
X192322Y59504D02*
X183711D01*
X180950Y56742*
X171480*
X192322Y193362D02*
X183711D01*
X180950Y190600*
X171480*
X192322Y327220D02*
X183711D01*
X180950Y324459*
X171480*
X194511Y56883D02*
Y56950D01*
X197065Y59504*
X194511Y56883D02*
Y57315D01*
X192322Y59504*
X194511Y56883D02*
Y44153D01*
Y84153D02*
X214741D01*
X220575Y89987*
X194511Y190741D02*
Y190808D01*
X197065Y193362*
X194511Y190741D02*
Y191173D01*
X192322Y193362*
X194511Y190741D02*
Y178011D01*
Y218011D02*
X214741D01*
X220575Y223845*
X194511Y324599D02*
Y324666D01*
X197065Y327220*
X194511Y324599D02*
Y325031D01*
X192322Y327220*
X194511Y324599D02*
Y311869D01*
Y351869D02*
X214741D01*
X220575Y357703*
X194632Y59504D02*
Y58755D01*
X194511*
Y56883*
X194632Y59504D02*
X192322D01*
X194632Y193362D02*
Y192613D01*
X194511*
Y190741*
X194632Y193362D02*
X192322D01*
X194632Y327220D02*
Y326471D01*
X194511*
Y324599*
X194632Y327220D02*
X192322D01*
X197065Y59504D02*
X194632D01*
X197065Y193362D02*
X194632D01*
X197065Y327220D02*
X194632D01*
X218157Y34793D02*
X169243D01*
X163243Y40793*
Y63872*
X218157Y168651D02*
X169243D01*
X163243Y174651*
Y197730*
X218157Y302509D02*
X169243D01*
X163243Y308509*
Y331588*
X220575Y34793D02*
X218157D01*
X220575Y37164D02*
Y37117D01*
X222899Y34793*
X220575Y37164D02*
X220528D01*
X218157Y34793*
X220575Y37164D02*
Y34793D01*
Y42743D02*
Y37164D01*
Y168651D02*
X218157D01*
X220575Y171022D02*
Y170975D01*
X222899Y168651*
X220575Y171022D02*
X220528D01*
X218157Y168651*
X220575Y171022D02*
Y168651D01*
Y176601D02*
Y171022D01*
Y302509D02*
X218157D01*
X220575Y304880D02*
Y304833D01*
X222899Y302509*
X220575Y304880D02*
X220528D01*
X218157Y302509*
X220575Y304880D02*
Y302509D01*
Y310459D02*
Y304880D01*
X222899Y34793D02*
X220575D01*
X222899Y168651D02*
X220575D01*
X222899Y302509D02*
X220575D01*
X236877Y79735D02*
X225387D01*
X218011Y72358*
X184460*
X180092Y76726*
X171480*
Y76742*
X236877Y213593D02*
X225387D01*
X218011Y206217*
X184460*
X180092Y210585*
X171480*
Y210600*
X236877Y347451D02*
X225387D01*
X218011Y340075*
X184460*
X180092Y344443*
X171480*
Y344459*
X240260Y79735D02*
X236877D01*
X240260Y83341D02*
Y79735D01*
Y89987D02*
Y83341D01*
Y213593D02*
X236877D01*
X240260Y217199D02*
Y213593D01*
Y223845D02*
Y217199D01*
Y347451D02*
X236877D01*
X240260Y351057D02*
Y347451D01*
Y357703D02*
Y351057D01*
X243866Y79735D02*
X247860D01*
X253588Y85463*
X273944*
X279061Y80346*
Y67491*
X264459Y52889*
Y52764*
X254063Y42368*
X240260*
Y42743*
X243866Y79735D02*
X240260D01*
X243866Y213593D02*
X247860D01*
X253588Y219321*
X273944*
X279061Y214204*
Y201349*
X264459Y186747*
Y186622*
X254063Y176226*
X240260*
Y176601*
X243866Y213593D02*
X240260D01*
X243866Y347451D02*
X247860D01*
X253588Y353179*
X273944*
X279061Y348062*
Y335207*
X264459Y320606*
Y320481*
X254063Y310085*
X240260*
Y310459*
X243866Y347451D02*
X240260D01*
X269451Y44365D02*
X268281D01*
X258708Y34793*
X222899*
X269451Y73893D02*
Y73731D01*
X255223Y59504*
X197065*
X269451Y178224D02*
X268281D01*
X258708Y168651*
X222899*
X269451Y207751D02*
Y207589D01*
X255223Y193362*
X197065*
X269451Y312082D02*
X268281D01*
X258708Y302509*
X222899*
X269451Y341609D02*
Y341448D01*
X255223Y327220*
X197065*
D02*
D115*
X8883Y66742D02*
X8633D01*
X5763Y63872*
X8883Y66742D02*
X8259D01*
X5763Y69238*
X8883Y200600D02*
X8633D01*
X5763Y197730*
X8883Y200600D02*
X8259D01*
X5763Y203096*
X8883Y334459D02*
X8633D01*
X5763Y331588*
X8883Y334459D02*
X8259D01*
X5763Y336955*
X82780Y83341D02*
X86386Y79735D01*
X82780Y83341D02*
Y83117D01*
X79397Y79735*
X82780Y217199D02*
X86386Y213593D01*
X82780Y217199D02*
Y216976D01*
X79397Y213593*
X82780Y351057D02*
X86386Y347451D01*
X82780Y351057D02*
Y350834D01*
X79397Y347451*
X166363Y66742D02*
X166114D01*
X163243Y63872*
X166363Y66742D02*
X165739D01*
X163243Y69238*
X166363Y200600D02*
X166114D01*
X163243Y197730*
X166363Y200600D02*
X165739D01*
X163243Y203096*
X166363Y334459D02*
X166114D01*
X163243Y331588*
X166363Y334459D02*
X165739D01*
X163243Y336955*
X240260Y83341D02*
X243866Y79735D01*
X240260Y83341D02*
Y83117D01*
X236877Y79735*
X240260Y217199D02*
X243866Y213593D01*
X240260Y217199D02*
Y216976D01*
X236877Y213593*
X240260Y351057D02*
X243866Y347451D01*
X240260Y351057D02*
Y350834D01*
X236877Y347451*
D02*
D136*
X54416Y104075D02*
X55695Y103435D01*
X56335Y102156*
X55695Y100876*
X54416Y100237*
X49937*
Y107914*
X54416*
X55695Y107274*
X56335Y105994*
X55695Y104715*
X54416Y104075*
X49937*
X60174Y105355D02*
X62733Y100237D01*
X65292Y105355*
X71050Y100876D02*
X72329Y100237D01*
X73609*
X74888Y100876*
X75528Y102156*
Y105994*
X74888Y107274*
X73609Y107914*
X72329*
X71050Y107274*
X70410Y105994*
Y102156*
X71050Y100876*
X74888Y107274*
X81286Y100237D02*
X81926Y100876D01*
X81286Y101516*
X80646Y100876*
X81286Y100237*
X91522Y100876D02*
X92802Y100237D01*
X94081*
X95361Y100876*
X96000Y102156*
X95361Y103435*
X94081Y104075*
X92802*
X94081D02*
X95361Y104715D01*
X96000Y105994*
X95361Y107274*
X94081Y107914*
X92802*
X91522Y107274*
X54416Y237933D02*
X55695Y237294D01*
X56335Y236014*
X55695Y234735*
X54416Y234095*
X49937*
Y241772*
X54416*
X55695Y241132*
X56335Y239853*
X55695Y238573*
X54416Y237933*
X49937*
X60174Y239213D02*
X62733Y234095D01*
X65292Y239213*
X71050Y234735D02*
X72329Y234095D01*
X73609*
X74888Y234735*
X75528Y236014*
Y239853*
X74888Y241132*
X73609Y241772*
X72329*
X71050Y241132*
X70410Y239853*
Y236014*
X71050Y234735*
X74888Y241132*
X81286Y234095D02*
X81926Y234735D01*
X81286Y235374*
X80646Y234735*
X81286Y234095*
X91522Y234735D02*
X92802Y234095D01*
X94081*
X95361Y234735*
X96000Y236014*
X95361Y237294*
X94081Y237933*
X92802*
X94081D02*
X95361Y238573D01*
X96000Y239853*
X95361Y241132*
X94081Y241772*
X92802*
X91522Y241132*
X54416Y371792D02*
X55695Y371152D01*
X56335Y369872*
X55695Y368593*
X54416Y367953*
X49937*
Y375630*
X54416*
X55695Y374991*
X56335Y373711*
X55695Y372431*
X54416Y371792*
X49937*
X60174Y373071D02*
X62733Y367953D01*
X65292Y373071*
X71050Y368593D02*
X72329Y367953D01*
X73609*
X74888Y368593*
X75528Y369872*
Y373711*
X74888Y374991*
X73609Y375630*
X72329*
X71050Y374991*
X70410Y373711*
Y369872*
X71050Y368593*
X74888Y374991*
X81286Y367953D02*
X81926Y368593D01*
X81286Y369233*
X80646Y368593*
X81286Y367953*
X91522Y368593D02*
X92802Y367953D01*
X94081*
X95361Y368593*
X96000Y369872*
X95361Y371152*
X94081Y371792*
X92802*
X94081D02*
X95361Y372431D01*
X96000Y373711*
X95361Y374991*
X94081Y375630*
X92802*
X91522Y374991*
X42871Y18043D02*
X45331D01*
X44101D02*
Y25424D01*
X42871D02*
X45331D01*
X50868Y18043D02*
Y25424D01*
X53944Y21733*
X57019Y25424*
Y18043*
X60710D02*
X63786Y25424D01*
X66862Y18043*
X61941Y21118D02*
X65631D01*
X74859D02*
X76704D01*
Y20503*
X76089Y19273*
X75474Y18657*
X74244Y18043*
X73013*
X71783Y18657*
X71168Y19273*
X70553Y20503*
Y22964*
X71168Y24194*
X71783Y24809*
X73013Y25424*
X74244*
X75474Y24809*
X76089Y24194*
X76704Y22964*
X82241Y18043D02*
X84702D01*
X83471D02*
Y25424D01*
X82241D02*
X84702D01*
X90238Y18043D02*
Y25424D01*
X96389Y18043*
Y25424*
X100080Y18043D02*
Y25424D01*
X106232*
X105002Y21733D02*
X100080D01*
Y18043D02*
X106232D01*
X65631Y6231D02*
X71783Y13613D01*
X65631D02*
X71783Y6231D01*
X78550D02*
Y9922D01*
X75474Y13613*
X78550Y9922D02*
X81626Y13613D01*
X85317D02*
X91468D01*
X85317Y6231*
X91468*
X42871Y151901D02*
X45331D01*
X44101D02*
Y159283D01*
X42871D02*
X45331D01*
X50868Y151901D02*
Y159283D01*
X53944Y155592*
X57019Y159283*
Y151901*
X60710D02*
X63786Y159283D01*
X66862Y151901*
X61941Y154976D02*
X65631D01*
X74859D02*
X76704D01*
Y154361*
X76089Y153131*
X75474Y152516*
X74244Y151901*
X73013*
X71783Y152516*
X71168Y153131*
X70553Y154361*
Y156822*
X71168Y158052*
X71783Y158667*
X73013Y159283*
X74244*
X75474Y158667*
X76089Y158052*
X76704Y156822*
X82241Y151901D02*
X84702D01*
X83471D02*
Y159283D01*
X82241D02*
X84702D01*
X90238Y151901D02*
Y159283D01*
X96389Y151901*
Y159283*
X100080Y151901D02*
Y159283D01*
X106232*
X105002Y155592D02*
X100080D01*
Y151901D02*
X106232D01*
X65631Y140090D02*
X71783Y147472D01*
X65631D02*
X71783Y140090D01*
X78550D02*
Y143781D01*
X75474Y147472*
X78550Y143781D02*
X81626Y147472D01*
X85317D02*
X91468D01*
X85317Y140090*
X91468*
X42871Y285759D02*
X45331D01*
X44101D02*
Y293141D01*
X42871D02*
X45331D01*
X50868Y285759D02*
Y293141D01*
X53944Y289450*
X57019Y293141*
Y285759*
X60710D02*
X63786Y293141D01*
X66862Y285759*
X61941Y288835D02*
X65631D01*
X74859D02*
X76704D01*
Y288220*
X76089Y286989*
X75474Y286374*
X74244Y285759*
X73013*
X71783Y286374*
X71168Y286989*
X70553Y288220*
Y290680*
X71168Y291911*
X71783Y292526*
X73013Y293141*
X74244*
X75474Y292526*
X76089Y291911*
X76704Y290680*
X82241Y285759D02*
X84702D01*
X83471D02*
Y293141D01*
X82241D02*
X84702D01*
X90238Y285759D02*
Y293141D01*
X96389Y285759*
Y293141*
X100080Y285759D02*
Y293141D01*
X106232*
X105002Y289450D02*
X100080D01*
Y285759D02*
X106232D01*
X65631Y273948D02*
X71783Y281330D01*
X65631D02*
X71783Y273948D01*
X78550D02*
Y277639D01*
X75474Y281330*
X78550Y277639D02*
X81626Y281330D01*
X85317D02*
X91468D01*
X85317Y273948*
X91468*
X211896Y104075D02*
X213176Y103435D01*
X213815Y102156*
X213176Y100876*
X211896Y100237*
X207418*
Y107914*
X211896*
X213176Y107274*
X213815Y105994*
X213176Y104715*
X211896Y104075*
X207418*
X217654Y105355D02*
X220213Y100237D01*
X222772Y105355*
X228530Y100876D02*
X229809Y100237D01*
X231089*
X232369Y100876*
X233008Y102156*
Y105994*
X232369Y107274*
X231089Y107914*
X229809*
X228530Y107274*
X227890Y105994*
Y102156*
X228530Y100876*
X232369Y107274*
X238766Y100237D02*
X239406Y100876D01*
X238766Y101516*
X238126Y100876*
X238766Y100237*
X249002Y100876D02*
X250282Y100237D01*
X251561*
X252841Y100876*
X253481Y102156*
X252841Y103435*
X251561Y104075*
X250282*
X251561D02*
X252841Y104715D01*
X253481Y105994*
X252841Y107274*
X251561Y107914*
X250282*
X249002Y107274*
X211896Y237933D02*
X213176Y237294D01*
X213815Y236014*
X213176Y234735*
X211896Y234095*
X207418*
Y241772*
X211896*
X213176Y241132*
X213815Y239853*
X213176Y238573*
X211896Y237933*
X207418*
X217654Y239213D02*
X220213Y234095D01*
X222772Y239213*
X228530Y234735D02*
X229809Y234095D01*
X231089*
X232369Y234735*
X233008Y236014*
Y239853*
X232369Y241132*
X231089Y241772*
X229809*
X228530Y241132*
X227890Y239853*
Y236014*
X228530Y234735*
X232369Y241132*
X238766Y234095D02*
X239406Y234735D01*
X238766Y235374*
X238126Y234735*
X238766Y234095*
X249002Y234735D02*
X250282Y234095D01*
X251561*
X252841Y234735*
X253481Y236014*
X252841Y237294*
X251561Y237933*
X250282*
X251561D02*
X252841Y238573D01*
X253481Y239853*
X252841Y241132*
X251561Y241772*
X250282*
X249002Y241132*
X211896Y371792D02*
X213176Y371152D01*
X213815Y369872*
X213176Y368593*
X211896Y367953*
X207418*
Y375630*
X211896*
X213176Y374991*
X213815Y373711*
X213176Y372431*
X211896Y371792*
X207418*
X217654Y373071D02*
X220213Y367953D01*
X222772Y373071*
X228530Y368593D02*
X229809Y367953D01*
X231089*
X232369Y368593*
X233008Y369872*
Y373711*
X232369Y374991*
X231089Y375630*
X229809*
X228530Y374991*
X227890Y373711*
Y369872*
X228530Y368593*
X232369Y374991*
X238766Y367953D02*
X239406Y368593D01*
X238766Y369233*
X238126Y368593*
X238766Y367953*
X249002Y368593D02*
X250282Y367953D01*
X251561*
X252841Y368593*
X253481Y369872*
X252841Y371152*
X251561Y371792*
X250282*
X251561D02*
X252841Y372431D01*
X253481Y373711*
X252841Y374991*
X251561Y375630*
X250282*
X249002Y374991*
X200351Y18043D02*
X202812D01*
X201581D02*
Y25424D01*
X200351D02*
X202812D01*
X208348Y18043D02*
Y25424D01*
X211424Y21733*
X214500Y25424*
Y18043*
X218191D02*
X221267Y25424D01*
X224342Y18043*
X219421Y21118D02*
X223112D01*
X232339D02*
X234185D01*
Y20503*
X233570Y19273*
X232954Y18657*
X231724Y18043*
X230494*
X229263Y18657*
X228648Y19273*
X228033Y20503*
Y22964*
X228648Y24194*
X229263Y24809*
X230494Y25424*
X231724*
X232954Y24809*
X233570Y24194*
X234185Y22964*
X239721Y18043D02*
X242182D01*
X240952D02*
Y25424D01*
X239721D02*
X242182D01*
X247718Y18043D02*
Y25424D01*
X253870Y18043*
Y25424*
X257561Y18043D02*
Y25424D01*
X263712*
X262482Y21733D02*
X257561D01*
Y18043D02*
X263712D01*
X223112Y6231D02*
X229263Y13613D01*
X223112D02*
X229263Y6231D01*
X236030D02*
Y9922D01*
X232954Y13613*
X236030Y9922D02*
X239106Y13613D01*
X242797D02*
X248948D01*
X242797Y6231*
X248948*
X200351Y151901D02*
X202812D01*
X201581D02*
Y159283D01*
X200351D02*
X202812D01*
X208348Y151901D02*
Y159283D01*
X211424Y155592*
X214500Y159283*
Y151901*
X218191D02*
X221267Y159283D01*
X224342Y151901*
X219421Y154976D02*
X223112D01*
X232339D02*
X234185D01*
Y154361*
X233570Y153131*
X232954Y152516*
X231724Y151901*
X230494*
X229263Y152516*
X228648Y153131*
X228033Y154361*
Y156822*
X228648Y158052*
X229263Y158667*
X230494Y159283*
X231724*
X232954Y158667*
X233570Y158052*
X234185Y156822*
X239721Y151901D02*
X242182D01*
X240952D02*
Y159283D01*
X239721D02*
X242182D01*
X247718Y151901D02*
Y159283D01*
X253870Y151901*
Y159283*
X257561Y151901D02*
Y159283D01*
X263712*
X262482Y155592D02*
X257561D01*
Y151901D02*
X263712D01*
X223112Y140090D02*
X229263Y147472D01*
X223112D02*
X229263Y140090D01*
X236030D02*
Y143781D01*
X232954Y147472*
X236030Y143781D02*
X239106Y147472D01*
X242797D02*
X248948D01*
X242797Y140090*
X248948*
X200351Y285759D02*
X202812D01*
X201581D02*
Y293141D01*
X200351D02*
X202812D01*
X208348Y285759D02*
Y293141D01*
X211424Y289450*
X214500Y293141*
Y285759*
X218191D02*
X221267Y293141D01*
X224342Y285759*
X219421Y288835D02*
X223112D01*
X232339D02*
X234185D01*
Y288220*
X233570Y286989*
X232954Y286374*
X231724Y285759*
X230494*
X229263Y286374*
X228648Y286989*
X228033Y288220*
Y290680*
X228648Y291911*
X229263Y292526*
X230494Y293141*
X231724*
X232954Y292526*
X233570Y291911*
X234185Y290680*
X239721Y285759D02*
X242182D01*
X240952D02*
Y293141D01*
X239721D02*
X242182D01*
X247718Y285759D02*
Y293141D01*
X253870Y285759*
Y293141*
X257561Y285759D02*
Y293141D01*
X263712*
X262482Y289450D02*
X257561D01*
Y285759D02*
X263712D01*
X223112Y273948D02*
X229263Y281330D01*
X223112D02*
X229263Y273948D01*
X236030D02*
Y277639D01*
X232954Y281330*
X236030Y277639D02*
X239106Y281330D01*
X242797D02*
X248948D01*
X242797Y273948*
X248948*
X0Y0D02*
M02*
