G04 EasyPC Gerber Version 20.0.2 Build 4112 *
%FSLAX35Y35*%
%MOIN*%
%AMT28*0 Octagon Pad at angle 0*4,1,8,-0.01631,-0.03937,0.01631,-0.03937,0.03937,-0.01631,0.03937,0.01631,0.01631,0.03937,-0.01631,0.03937,-0.03937,0.01631,-0.03937,-0.01631,-0.01631,-0.03937,0*%
%ADD28T28*%
%ADD18R,0.07874X0.07874*%
%ADD71R,0.08268X0.08268*%
%ADD73C,0.02362*%
%ADD122C,0.02953*%
%ADD19C,0.07874*%
%ADD20C,0.08268*%
X0Y0D02*
D02*
D18*
X195600Y70600D03*
D02*
D19*
X145600D03*
Y110600D03*
X155600Y70600D03*
Y110600D03*
X165600Y70600D03*
Y110600D03*
X175600Y70600D03*
Y110600D03*
X185600Y70600D03*
Y110600D03*
X195600D03*
X207100Y84773D03*
Y106427D03*
X219100Y84773D03*
Y106427D03*
D02*
D71*
X110600Y71100D03*
X165600Y133100D03*
X210600Y35600D03*
D02*
D20*
X20600Y25600D03*
Y35600D03*
X30600Y25600D03*
Y35600D03*
Y71100D03*
X40600Y25600D03*
Y35600D03*
Y71100D03*
X50600Y25600D03*
Y35600D03*
Y71100D03*
X60600Y25600D03*
Y35600D03*
Y71100D03*
X70600Y25600D03*
Y35600D03*
Y71100D03*
X80600Y25600D03*
Y35600D03*
Y71100D03*
X90600Y25600D03*
Y35600D03*
Y71100D03*
X100600Y25600D03*
Y35600D03*
Y71100D03*
X110600Y25600D03*
Y35600D03*
X120600Y25600D03*
Y35600D03*
X130600Y25600D03*
Y35600D03*
X140600Y25600D03*
Y35600D03*
X145600Y133100D03*
X150600Y25600D03*
Y35600D03*
X155600Y133100D03*
X160600Y25600D03*
Y35600D03*
X170600Y25600D03*
Y35600D03*
X180600Y25600D03*
Y35600D03*
X190600Y25600D03*
Y35600D03*
X200600Y25600D03*
Y35600D03*
X210600Y25600D03*
D02*
D28*
X55600Y56100D03*
X60600Y90600D03*
X118100Y56100D03*
Y90600D03*
X165600Y59600D03*
X165850Y45600D03*
X178850Y90600D03*
X200600Y14350D03*
D02*
D73*
X24064Y122286D02*
X27312D01*
X25688D02*
Y132030D01*
X24064D02*
X27312D01*
X34620Y122286D02*
Y132030D01*
X38680Y127158*
X42740Y132030*
Y122286*
X47612D02*
X51672Y132030D01*
X55732Y122286*
X49236Y126346D02*
X54108D01*
X66288D02*
X68724D01*
Y125534*
X67912Y123910*
X67100Y123098*
X65476Y122286*
X63852*
X62228Y123098*
X61416Y123910*
X60604Y125534*
Y128782*
X61416Y130406*
X62228Y131218*
X63852Y132030*
X65476*
X67100Y131218*
X67912Y130406*
X68724Y128782*
X76032Y122286D02*
X79280D01*
X77656D02*
Y132030D01*
X76032D02*
X79280D01*
X86588Y122286D02*
Y132030D01*
X94708Y122286*
Y132030*
X99580Y122286D02*
Y132030D01*
X107700*
X106076Y127158D02*
X99580D01*
Y122286D02*
X107700D01*
X47612Y106696D02*
X55732Y116440D01*
X47612D02*
X55732Y106696D01*
X64664D02*
Y111568D01*
X60604Y116440*
X64664Y111568D02*
X68724Y116440D01*
X73596D02*
X81716D01*
X73596Y106696*
X81716*
D02*
D122*
X50600Y71100D02*
Y61100D01*
X55600Y56100*
X60600Y35600D02*
Y40600D01*
X55600Y45600*
X38100*
X30600Y53100*
Y71100*
X60600Y90600D02*
Y71100D01*
X100600Y25600D02*
Y18100D01*
X98100Y15600*
X15600*
X13100Y18100*
Y78100*
X20600Y85600*
X38100*
X40600Y83100*
Y71100*
X100600Y35600D02*
Y47350D01*
X98100Y49850*
X78100*
X70600Y57350*
Y71100*
X100600D02*
Y100350D01*
X106600Y106350*
X132600*
X135225Y108975*
X110600Y35600D02*
Y50600D01*
X108100Y53100*
Y61100*
X110600Y63600*
X118100*
X123100Y68600*
Y85600*
X118100Y90600*
X110600Y71100D02*
Y82100D01*
X107600Y85100*
Y97100*
X109850Y99350*
X126850*
X131350Y94850*
Y52100*
X118100Y56100D02*
X120600Y53600D01*
Y35600*
X130600Y25600D02*
Y13100D01*
X125600Y8100*
X13100*
X8100Y13100*
Y90600*
X15600Y98100*
X75600*
X80600Y93100*
Y71100*
X131350Y52100D02*
Y36350D01*
X130600Y35600*
X135225Y108975D02*
X135100Y109100D01*
Y129850*
X138600Y133350*
X145350*
X145600Y133100*
Y110600D02*
Y117350D01*
X155850Y127600*
Y132850*
X155600Y133100*
X160600Y25600D02*
Y10850D01*
X164850Y6600*
X214100*
X219850Y12350*
Y47850*
X217350Y50350*
X201600*
X194850Y57100*
Y69850*
X195600Y70600*
X165600Y59600D02*
Y70600D01*
Y80523*
Y110600*
Y105350*
X160850Y100600*
X143600*
X135225Y108975*
X170600Y35600D02*
Y40850D01*
X165850Y45600*
X175600Y70600D02*
Y57600D01*
X170100Y52100*
X131350*
X175600Y110600D02*
Y125350D01*
Y128850*
X171350Y133100*
X165600*
X178850Y90600D02*
Y102100D01*
X175600Y105350*
Y110600*
X200600Y25600D02*
Y14350D01*
X207100Y84773D02*
X186350D01*
Y80523*
X165600*
X207100Y84773D02*
X219100D01*
X207100Y106427D02*
X205927D01*
X201600Y102100*
X178850*
X219100Y106427D02*
X207100D01*
X0Y0D02*
M02*
