G04 EasyPC Gerber Version 20.0.2 Build 4112 *
%FSLAX35Y35*%
%MOIN*%
%ADD71R,0.08268X0.08268*%
%ADD115C,0.01500*%
%ADD113C,0.01654*%
%ADD114C,0.02756*%
%ADD19C,0.07874*%
%ADD20C,0.08268*%
%ADD112C,0.09055*%
%ADD25C,0.09449*%
%ADD17C,0.13780*%
X0Y0D02*
D02*
D17*
X36845Y19796D03*
Y109796D03*
X121845Y19796D03*
Y109796D03*
D02*
D19*
X42750Y49565D03*
Y89565D03*
X112947Y45019D03*
Y74546D03*
X144750Y54245D03*
Y94245D03*
X162750Y21056D03*
Y50584D03*
D02*
D71*
X15750Y82043D03*
X162750Y90500D03*
D02*
D20*
X15750Y52043D03*
Y62043D03*
Y72043D03*
X162750Y70500D03*
Y80500D03*
D02*
D25*
X68814Y46017D03*
Y93261D03*
X88499Y46017D03*
Y93261D03*
D02*
D112*
X144750Y16402D03*
Y36087D03*
D02*
D113*
X60822Y109749D02*
X62053Y109133D01*
X62668Y107903*
X62053Y106673*
X60822Y106058*
X56516*
Y113440*
X60822*
X62053Y112824*
X62668Y111594*
X62053Y110364*
X60822Y109749*
X56516*
X66359Y110979D02*
X68819Y106058D01*
X71280Y110979*
X76817Y106673D02*
X78047Y106058D01*
X79277*
X80507Y106673*
X81122Y107903*
Y111594*
X80507Y112824*
X79277Y113440*
X78047*
X76817Y112824*
X76201Y111594*
Y107903*
X76817Y106673*
X80507Y112824*
X86659Y106058D02*
X87274Y106673D01*
X86659Y107288*
X86044Y106673*
X86659Y106058*
X100807D02*
X95886D01*
X100193Y110364*
X100807Y111594*
X100193Y112824*
X98962Y113440*
X97117*
X95886Y112824*
X48590Y20069D02*
X51051D01*
X49820D02*
Y27450D01*
X48590D02*
X51051D01*
X56587Y20069D02*
Y27450D01*
X59663Y23759*
X62739Y27450*
Y20069*
X66430D02*
X69506Y27450D01*
X72581Y20069*
X67660Y23144D02*
X71351D01*
X80578D02*
X82424D01*
Y22529*
X81809Y21299*
X81193Y20683*
X79963Y20069*
X78733*
X77502Y20683*
X76887Y21299*
X76272Y22529*
Y24990*
X76887Y26220*
X77502Y26835*
X78733Y27450*
X79963*
X81193Y26835*
X81809Y26220*
X82424Y24990*
X87960Y20069D02*
X90421D01*
X89191D02*
Y27450D01*
X87960D02*
X90421D01*
X95957Y20069D02*
Y27450D01*
X102109Y20069*
Y27450*
X105800Y20069D02*
Y27450D01*
X111951*
X110721Y23759D02*
X105800D01*
Y20069D02*
X111951D01*
X71351Y8257D02*
X77502Y15639D01*
X71351D02*
X77502Y8257D01*
X84269D02*
Y11948D01*
X81193Y15639*
X84269Y11948D02*
X87345Y15639D01*
X91036D02*
X97187D01*
X91036Y8257*
X97187*
D02*
D114*
X5250Y55745D02*
Y87107D01*
X9750Y91607*
X31326*
X15750Y52043D02*
X8952D01*
X5250Y55745*
X15750Y72043D02*
X26583D01*
X32382Y66245*
X15750Y82043D02*
X31452D01*
X33750Y79745*
X66250*
X68750Y82245*
X31326Y91607D02*
X40750D01*
X42750Y89607*
Y89565*
X32382Y66245D02*
X47750D01*
X32382D02*
X34882Y63745D01*
X43307*
X42750Y60281D02*
Y49565D01*
X43307Y63745D02*
X45237D01*
Y66272*
X48424*
X43307Y63745D02*
Y62029D01*
X42750*
Y60281*
X47750Y66245D02*
X60834D01*
X60861Y66272*
X148508*
X153750Y61030*
Y51186*
X154000Y50936*
X48424Y66272D02*
X48397Y66245D01*
X47750*
X54539Y94228D02*
Y94353D01*
X51294Y97598*
X37317*
X31326Y91607*
X54539Y94228D02*
X67846D01*
X68814Y93261*
X64250Y33245D02*
X11250D01*
X5250Y39245*
Y55745*
X68250Y37245D02*
X64250Y33245D01*
X68814D02*
X64250D01*
X68814D02*
X73186D01*
X68814Y34946D02*
Y33245D01*
Y37245D02*
Y34946D01*
Y46017D02*
Y34946D01*
X69250Y37181D02*
X73186Y33245D01*
X85116Y83009D02*
X84991D01*
X69514*
X68750Y82245*
X88499Y46017D02*
X98308D01*
X104835Y52544*
X128797*
X133665Y47676*
Y30828*
X137658Y26834*
X152764*
X153074Y27144*
X88499Y83009D02*
X85116D01*
X88499Y86615D02*
Y83009D01*
Y93261D02*
Y86615D01*
X92105Y83009D02*
X88499D01*
X98750D02*
X100717D01*
X98750D02*
X92105D01*
X100717D02*
X101901D01*
X110250Y91357*
X127424*
X140312Y104245*
X165250*
X171250Y98245*
Y71245*
X112947Y45019D02*
Y39245D01*
X106947Y33245*
X73186*
X112947Y74546D02*
Y78378D01*
X108330Y82996*
X101229*
X101216Y83009*
X100717*
X144750Y16402D02*
Y18972D01*
X151250Y25472*
X151402*
X153074Y27144*
X144750Y36087D02*
Y41686D01*
X154000Y50936*
X144750Y54245D02*
X144288D01*
X139250Y59283*
X65250*
X57250Y51283*
Y46745*
X50250Y39745*
X32750*
X27750Y44745*
Y58245*
X23750Y62245*
X15952*
X15750Y62043*
X153074Y27144D02*
X163175Y37245D01*
X168734*
X154000Y50936D02*
Y59406D01*
X155250Y60656*
X159374*
X162750*
Y21056D02*
Y22716D01*
X165010*
X171250Y28956*
Y33804*
X162750Y57286D02*
Y50584D01*
Y60656D02*
Y57286D01*
Y63402D02*
Y60656D01*
Y70500D02*
Y63402D01*
Y80500D02*
X149265D01*
X144647Y85117*
Y94142*
X144750Y94245*
X168734Y37245D02*
X171250D01*
Y33804D02*
Y37245D01*
Y40313*
Y71245*
Y87500*
X168250Y90500*
X162750*
D02*
D115*
X48424Y66272D02*
Y65808D01*
X42898Y60281*
X42750*
X68814Y37245D02*
X69250D01*
Y37181*
X68814Y37245D02*
X68250D01*
X88499Y86615D02*
X92105Y83009D01*
X88499Y86615D02*
Y86391D01*
X85116Y83009*
X159374Y60656D02*
X159380D01*
X162750Y57286*
X159374Y60656D02*
X160004D01*
X162750Y63402*
X168734Y37245D02*
Y36319D01*
X171250Y33804*
X168734Y37245D02*
Y37797D01*
X171250Y40313*
X0Y0D02*
M02*
